<mxfile host="Electron" agent="Mozilla/5.0 (X11; Linux x86_64) AppleWebKit/537.36 (KHTML, like Gecko) draw.io/25.0.1 Chrome/128.0.6613.186 Electron/32.2.6 Safari/537.36" version="25.0.1">
  <diagram name="Page-1" id="xfNBrf_3l7XTtQDH77Kc">
    <mxGraphModel dx="265" dy="401" grid="1" gridSize="10" guides="1" tooltips="1" connect="1" arrows="1" fold="1" page="1" pageScale="1" pageWidth="827" pageHeight="1169" math="0" shadow="0">
      <root>
        <mxCell id="0" />
        <mxCell id="1" parent="0" />
        <mxCell id="GTtrjTMC6TbyrZr_en22-1" value="MeasurementPoint" style="swimlane;fontStyle=0;childLayout=stackLayout;horizontal=1;startSize=20;horizontalStack=0;resizeParent=1;resizeParentMax=0;resizeLast=0;collapsible=1;marginBottom=0;swimlaneLine=1;glass=0;shadow=0;rounded=0;fillColor=default;whiteSpace=wrap;html=1;fontColor=default;fontFamily=Fira Code;fontSize=9;" vertex="1" parent="1">
          <mxGeometry x="40" y="30" width="110" height="94" as="geometry">
            <mxRectangle x="20" y="30" width="140" height="30" as="alternateBounds" />
          </mxGeometry>
        </mxCell>
        <mxCell id="GTtrjTMC6TbyrZr_en22-2" value="metric" style="text;strokeColor=none;fillColor=none;align=left;verticalAlign=middle;spacingLeft=4;spacingRight=4;overflow=hidden;points=[[0,0.5],[1,0.5]];portConstraint=eastwest;rotatable=0;whiteSpace=wrap;html=1;fontFamily=Fira Code;fontSize=9;" vertex="1" parent="GTtrjTMC6TbyrZr_en22-1">
          <mxGeometry y="20" width="110" height="12" as="geometry" />
        </mxCell>
        <mxCell id="GTtrjTMC6TbyrZr_en22-3" value="timestamp" style="text;strokeColor=none;fillColor=none;align=left;verticalAlign=middle;spacingLeft=4;spacingRight=4;overflow=hidden;points=[[0,0.5],[1,0.5]];portConstraint=eastwest;rotatable=0;whiteSpace=wrap;html=1;fontFamily=Fira Code;fontSize=9;" vertex="1" parent="GTtrjTMC6TbyrZr_en22-1">
          <mxGeometry y="32" width="110" height="12" as="geometry" />
        </mxCell>
        <mxCell id="GTtrjTMC6TbyrZr_en22-4" value="value" style="text;strokeColor=none;fillColor=none;align=left;verticalAlign=middle;spacingLeft=4;spacingRight=4;overflow=hidden;points=[[0,0.5],[1,0.5]];portConstraint=eastwest;rotatable=0;whiteSpace=wrap;html=1;fontFamily=Fira Code;fontSize=9;" vertex="1" parent="GTtrjTMC6TbyrZr_en22-1">
          <mxGeometry y="44" width="110" height="12" as="geometry" />
        </mxCell>
        <mxCell id="GTtrjTMC6TbyrZr_en22-6" value="resource" style="text;strokeColor=none;fillColor=none;align=left;verticalAlign=middle;spacingLeft=4;spacingRight=4;overflow=hidden;points=[[0,0.5],[1,0.5]];portConstraint=eastwest;rotatable=0;whiteSpace=wrap;html=1;fontFamily=Fira Code;fontSize=9;" vertex="1" parent="GTtrjTMC6TbyrZr_en22-1">
          <mxGeometry y="56" width="110" height="12" as="geometry" />
        </mxCell>
        <mxCell id="GTtrjTMC6TbyrZr_en22-7" value="consumer" style="text;strokeColor=none;fillColor=none;align=left;verticalAlign=middle;spacingLeft=4;spacingRight=4;overflow=hidden;points=[[0,0.5],[1,0.5]];portConstraint=eastwest;rotatable=0;whiteSpace=wrap;html=1;fontFamily=Fira Code;fontSize=9;" vertex="1" parent="GTtrjTMC6TbyrZr_en22-1">
          <mxGeometry y="68" width="110" height="12" as="geometry" />
        </mxCell>
        <mxCell id="GTtrjTMC6TbyrZr_en22-8" value="(attributes)" style="text;strokeColor=none;fillColor=none;align=left;verticalAlign=middle;spacingLeft=4;spacingRight=4;overflow=hidden;points=[[0,0.5],[1,0.5]];portConstraint=eastwest;rotatable=0;whiteSpace=wrap;html=1;fontFamily=Fira Code;fontSize=9;" vertex="1" parent="GTtrjTMC6TbyrZr_en22-1">
          <mxGeometry y="80" width="110" height="14" as="geometry" />
        </mxCell>
        <mxCell id="GTtrjTMC6TbyrZr_en22-9" value="Metric" style="swimlane;fontStyle=0;childLayout=stackLayout;horizontal=1;startSize=20;horizontalStack=0;resizeParent=1;resizeParentMax=0;resizeLast=0;collapsible=1;marginBottom=0;swimlaneLine=1;glass=0;shadow=0;rounded=0;fillColor=default;whiteSpace=wrap;html=1;fontColor=default;fontFamily=Fira Code;fontSize=9;" vertex="1" parent="1">
          <mxGeometry x="190" y="47" width="80" height="70" as="geometry">
            <mxRectangle x="20" y="30" width="140" height="30" as="alternateBounds" />
          </mxGeometry>
        </mxCell>
        <mxCell id="GTtrjTMC6TbyrZr_en22-10" value="name" style="text;strokeColor=none;fillColor=none;align=left;verticalAlign=middle;spacingLeft=4;spacingRight=4;overflow=hidden;points=[[0,0.5],[1,0.5]];portConstraint=eastwest;rotatable=0;whiteSpace=wrap;html=1;fontFamily=Fira Code;fontSize=9;" vertex="1" parent="GTtrjTMC6TbyrZr_en22-9">
          <mxGeometry y="20" width="80" height="12" as="geometry" />
        </mxCell>
        <mxCell id="GTtrjTMC6TbyrZr_en22-11" value="description" style="text;strokeColor=none;fillColor=none;align=left;verticalAlign=middle;spacingLeft=4;spacingRight=4;overflow=hidden;points=[[0,0.5],[1,0.5]];portConstraint=eastwest;rotatable=0;whiteSpace=wrap;html=1;fontFamily=Fira Code;fontSize=9;" vertex="1" parent="GTtrjTMC6TbyrZr_en22-9">
          <mxGeometry y="32" width="80" height="12" as="geometry" />
        </mxCell>
        <mxCell id="GTtrjTMC6TbyrZr_en22-12" value="type" style="text;strokeColor=none;fillColor=none;align=left;verticalAlign=middle;spacingLeft=4;spacingRight=4;overflow=hidden;points=[[0,0.5],[1,0.5]];portConstraint=eastwest;rotatable=0;whiteSpace=wrap;html=1;fontFamily=Fira Code;fontSize=9;" vertex="1" parent="GTtrjTMC6TbyrZr_en22-9">
          <mxGeometry y="44" width="80" height="12" as="geometry" />
        </mxCell>
        <mxCell id="GTtrjTMC6TbyrZr_en22-13" value="unit" style="text;strokeColor=none;fillColor=none;align=left;verticalAlign=middle;spacingLeft=4;spacingRight=4;overflow=hidden;points=[[0,0.5],[1,0.5]];portConstraint=eastwest;rotatable=0;whiteSpace=wrap;html=1;fontFamily=Fira Code;fontSize=9;" vertex="1" parent="GTtrjTMC6TbyrZr_en22-9">
          <mxGeometry y="56" width="80" height="14" as="geometry" />
        </mxCell>
        <mxCell id="GTtrjTMC6TbyrZr_en22-16" style="edgeStyle=orthogonalEdgeStyle;rounded=0;orthogonalLoop=1;jettySize=auto;html=1;fontSize=9;" edge="1" parent="1">
          <mxGeometry relative="1" as="geometry">
            <mxPoint x="92" y="57" as="sourcePoint" />
            <mxPoint x="190" y="57" as="targetPoint" />
          </mxGeometry>
        </mxCell>
      </root>
    </mxGraphModel>
  </diagram>
</mxfile>
